<svg xmlns="http://www.w3.org/2000/svg" viewBox="0 0 64 64"><path d="M32 58 V20" stroke="#4e9d3a" stroke-width="3.2" stroke-linecap="round"/><g fill="#5fb349" stroke="#3c7d2a" stroke-width="1.6"><path d="M32 44 C22 44 16 38 16 32 C26 32 31 37 32 44Z"/><path d="M32 36 C42 36 48 30 48 24 C38 24 33 29 32 36Z"/></g><g fill="#7fc46a" stroke="#3c7d2a" stroke-width="1.6"><ellipse cx="19" cy="38" rx="5" ry="12" transform="rotate(-18 19 38)"/><ellipse cx="45" cy="34" rx="5" ry="12" transform="rotate(18 45 34)"/><ellipse cx="32" cy="48" rx="5" ry="12"/></g><g fill="#4d9e3c"><circle cx="18" cy="32" r="1.8"/><circle cx="19" cy="38" r="1.8"/><circle cx="20" cy="44" r="1.8"/><circle cx="46" cy="28" r="1.8"/><circle cx="45" cy="34" r="1.8"/><circle cx="44" cy="40" r="1.8"/><circle cx="32" cy="42" r="1.8"/><circle cx="32" cy="48" r="1.8"/><circle cx="32" cy="54" r="1.8"/></g></svg>