<svg xmlns="http://www.w3.org/2000/svg" viewBox="0 0 64 64"><path d="M32 58 V20" stroke="#4e9d3a" stroke-width="3.2" stroke-linecap="round"/><g fill="#5fb349" stroke="#3c7d2a" stroke-width="1.6"><path d="M32 44 C22 44 16 38 16 32 C26 32 31 37 32 44Z"/><path d="M32 36 C42 36 48 30 48 24 C38 24 33 29 32 36Z"/></g><g fill="#3f9a3a" stroke="#2e6e2a" stroke-width="1.6"><rect x="14" y="28" width="9" height="22" rx="4.5" transform="rotate(-18 18 39)"/><rect x="41" y="24" width="9" height="22" rx="4.5" transform="rotate(16 45 35)"/><rect x="27" y="36" width="9" height="22" rx="4.5"/></g><g fill="#9fdc7a" opacity=".6"><rect x="16" y="31" width="2.5" height="12" rx="1.2" transform="rotate(-18 18 39)"/><rect x="29" y="39" width="2.5" height="12" rx="1.2"/></g></svg>