<svg xmlns="http://www.w3.org/2000/svg" viewBox="0 0 64 64"><path d="M32 58 V20" stroke="#4e9d3a" stroke-width="3.2" stroke-linecap="round"/><g fill="#5fb349" stroke="#3c7d2a" stroke-width="1.6"><path d="M32 44 C22 44 16 38 16 32 C26 32 31 37 32 44Z"/><path d="M32 36 C42 36 48 30 48 24 C38 24 33 29 32 36Z"/></g><ellipse cx="41.5" cy="20.0" rx="3.2" ry="5.2" transform="rotate(0 41.5 20.0)" fill="#f5c400" stroke="#b58a12" stroke-width=".8"/><ellipse cx="40.2" cy="24.8" rx="3.2" ry="5.2" transform="rotate(30 40.2 24.8)" fill="#f5c400" stroke="#b58a12" stroke-width=".8"/><ellipse cx="36.8" cy="28.2" rx="3.2" ry="5.2" transform="rotate(60 36.8 28.2)" fill="#f5c400" stroke="#b58a12" stroke-width=".8"/><ellipse cx="32.0" cy="29.5" rx="3.2" ry="5.2" transform="rotate(90 32.0 29.5)" fill="#f5c400" stroke="#b58a12" stroke-width=".8"/><ellipse cx="27.2" cy="28.2" rx="3.2" ry="5.2" transform="rotate(120 27.2 28.2)" fill="#f5c400" stroke="#b58a12" stroke-width=".8"/><ellipse cx="23.8" cy="24.8" rx="3.2" ry="5.2" transform="rotate(150 23.8 24.8)" fill="#f5c400" stroke="#b58a12" stroke-width=".8"/><ellipse cx="22.5" cy="20.0" rx="3.2" ry="5.2" transform="rotate(180 22.5 20.0)" fill="#f5c400" stroke="#b58a12" stroke-width=".8"/><ellipse cx="23.8" cy="15.3" rx="3.2" ry="5.2" transform="rotate(210 23.8 15.3)" fill="#f5c400" stroke="#b58a12" stroke-width=".8"/><ellipse cx="27.2" cy="11.8" rx="3.2" ry="5.2" transform="rotate(240 27.2 11.8)" fill="#f5c400" stroke="#b58a12" stroke-width=".8"/><ellipse cx="32.0" cy="10.5" rx="3.2" ry="5.2" transform="rotate(270 32.0 10.5)" fill="#f5c400" stroke="#b58a12" stroke-width=".8"/><ellipse cx="36.8" cy="11.8" rx="3.2" ry="5.2" transform="rotate(300 36.8 11.8)" fill="#f5c400" stroke="#b58a12" stroke-width=".8"/><ellipse cx="40.2" cy="15.2" rx="3.2" ry="5.2" transform="rotate(330 40.2 15.2)" fill="#f5c400" stroke="#b58a12" stroke-width=".8"/><circle cx="32" cy="20" r="6" fill="#6b4220"/></svg>