<svg xmlns="http://www.w3.org/2000/svg" viewBox="0 0 64 64"><g stroke="#8fae3a" stroke-width="3.4" stroke-linecap="round" fill="none"><path d="M24 58 C22 44 20 36 16 28"/><path d="M32 58 V26"/><path d="M40 58 C42 44 44 36 48 28"/></g><g fill="#f2c94c" stroke="#c9942a" stroke-width="1.4"><ellipse cx="15" cy="24" rx="3.2" ry="5" transform="rotate(-25 15 24)"/><ellipse cx="19" cy="17" rx="3.2" ry="5" transform="rotate(-20 19 17)"/><ellipse cx="24" cy="12" rx="3.2" ry="5" transform="rotate(-12 24 12)"/><ellipse cx="32" cy="20" rx="3.4" ry="5.4"/><ellipse cx="32" cy="12" rx="3.4" ry="5.4"/><ellipse cx="32" cy="5" rx="3" ry="4.6"/><ellipse cx="49" cy="24" rx="3.2" ry="5" transform="rotate(25 49 24)"/><ellipse cx="45" cy="17" rx="3.2" ry="5" transform="rotate(20 45 17)"/><ellipse cx="40" cy="12" rx="3.2" ry="5" transform="rotate(12 40 12)"/></g></svg>